<mxfile host="app.diagrams.net" modified="2024-01-05T14:19:01.043Z" agent="Mozilla/5.0 (X11; Linux x86_64) AppleWebKit/537.36 (KHTML, like Gecko) Chrome/120.0.0.0 Safari/537.36" etag="SFIte4JJSQQvYpvJx2JH" version="22.1.16" type="device">
  <diagram name="Página-1" id="7cPKeqR4tp2NBSJLsqpI">
    <mxGraphModel dx="2206" dy="1188" grid="1" gridSize="10" guides="1" tooltips="1" connect="1" arrows="1" fold="1" page="1" pageScale="1" pageWidth="2339" pageHeight="3300" math="0" shadow="0">
      <root>
        <mxCell id="0" />
        <mxCell id="1" parent="0" />
        <mxCell id="LU6YbtRn0LzD-Fn8LKnE-1" value="" style="whiteSpace=wrap;html=1;fillColor=default;" vertex="1" parent="1">
          <mxGeometry x="130" y="70" width="590" height="40" as="geometry" />
        </mxCell>
        <mxCell id="LU6YbtRn0LzD-Fn8LKnE-2" value="" style="group;strokeColor=default;fillColor=default;" vertex="1" connectable="0" parent="1">
          <mxGeometry x="130" y="110" width="590" height="220" as="geometry" />
        </mxCell>
        <mxCell id="LU6YbtRn0LzD-Fn8LKnE-3" value="&lt;div style=&quot;&quot;&gt;&lt;font style=&quot;font-size: 24px;&quot;&gt;Entrada&lt;/font&gt;&lt;br&gt;&lt;/div&gt;&lt;font style=&quot;font-size: 24px;&quot;&gt;&lt;div style=&quot;&quot;&gt;Mensalidade&lt;br&gt;&lt;/div&gt;&lt;span style=&quot;border-color: var(--border-color);&quot;&gt;&lt;div style=&quot;&quot;&gt;Diferença&lt;br&gt;&lt;/div&gt;&lt;/span&gt;&lt;span style=&quot;border-color: var(--border-color);&quot;&gt;&lt;div style=&quot;&quot;&gt;Diferença de Plano&lt;br&gt;&lt;/div&gt;&lt;div style=&quot;&quot;&gt;Diferença Plano&lt;br&gt;&lt;/div&gt;&lt;div style=&quot;&quot;&gt;Mensalidade DP&lt;br&gt;&lt;/div&gt;&lt;div style=&quot;&quot;&gt;Seguro Desemprego&lt;br&gt;&lt;/div&gt;&lt;/span&gt;&lt;/font&gt;" style="text;html=1;strokeColor=none;fillColor=none;align=left;verticalAlign=top;whiteSpace=wrap;rounded=0;" vertex="1" parent="LU6YbtRn0LzD-Fn8LKnE-2">
          <mxGeometry x="19.862518335225165" y="0.0032372670807474524" width="234.95373679577463" height="189.62428571428572" as="geometry" />
        </mxCell>
        <mxCell id="LU6YbtRn0LzD-Fn8LKnE-4" value="&lt;span style=&quot;color: rgb(0, 0, 0); font-family: Helvetica; font-size: 24px; font-style: normal; font-variant-ligatures: normal; font-variant-caps: normal; letter-spacing: normal; orphans: 2; text-align: left; text-indent: 0px; text-transform: none; widows: 2; word-spacing: 0px; -webkit-text-stroke-width: 0px; background-color: rgb(251, 251, 251); text-decoration-thickness: initial; text-decoration-style: initial; text-decoration-color: initial; float: none; display: inline !important;&quot;&gt;Matrícula&lt;/span&gt;&lt;br style=&quot;border-color: var(--border-color); color: rgb(0, 0, 0); font-family: Helvetica; font-size: 24px; font-style: normal; font-variant-ligatures: normal; font-variant-caps: normal; letter-spacing: normal; orphans: 2; text-align: left; text-indent: 0px; text-transform: none; widows: 2; word-spacing: 0px; -webkit-text-stroke-width: 0px; background-color: rgb(251, 251, 251); text-decoration-thickness: initial; text-decoration-style: initial; text-decoration-color: initial;&quot;&gt;&lt;span style=&quot;color: rgb(0, 0, 0); font-family: Helvetica; font-size: 24px; font-style: normal; font-variant-ligatures: normal; font-variant-caps: normal; letter-spacing: normal; orphans: 2; text-align: left; text-indent: 0px; text-transform: none; widows: 2; word-spacing: 0px; -webkit-text-stroke-width: 0px; background-color: rgb(251, 251, 251); text-decoration-thickness: initial; text-decoration-style: initial; text-decoration-color: initial; float: none; display: inline !important;&quot;&gt;Matrícula&lt;/span&gt;&lt;br style=&quot;border-color: var(--border-color); color: rgb(0, 0, 0); font-family: Helvetica; font-size: 24px; font-style: normal; font-variant-ligatures: normal; font-variant-caps: normal; letter-spacing: normal; orphans: 2; text-align: left; text-indent: 0px; text-transform: none; widows: 2; word-spacing: 0px; -webkit-text-stroke-width: 0px; background-color: rgb(251, 251, 251); text-decoration-thickness: initial; text-decoration-style: initial; text-decoration-color: initial;&quot;&gt;&lt;span style=&quot;border-color: var(--border-color); font-size: 24px;&quot;&gt;Matrícula&lt;br style=&quot;border-color: var(--border-color);&quot;&gt;&lt;span style=&quot;border-color: var(--border-color);&quot;&gt;Matrícula&lt;br&gt;&lt;/span&gt;Matrícula&lt;br&gt;Renovação de Matrícula&lt;br style=&quot;border-color: var(--border-color);&quot;&gt;&lt;span style=&quot;border-color: var(--border-color);&quot;&gt;Matrícula&lt;/span&gt;&lt;br&gt;&lt;/span&gt;" style="text;whiteSpace=wrap;html=1;" vertex="1" parent="LU6YbtRn0LzD-Fn8LKnE-2">
          <mxGeometry x="307.92282568436644" y="1.04" width="271.28000942792687" height="190.6634782608696" as="geometry" />
        </mxCell>
        <mxCell id="LU6YbtRn0LzD-Fn8LKnE-10" value="&lt;font style=&quot;font-size: 24px;&quot;&gt;&lt;b&gt;Tipo Pedido de Venda&lt;/b&gt;&lt;/font&gt;" style="text;html=1;align=center;verticalAlign=middle;resizable=0;points=[];autosize=1;strokeColor=none;fillColor=none;" vertex="1" parent="1">
          <mxGeometry x="430" y="70" width="270" height="40" as="geometry" />
        </mxCell>
        <mxCell id="LU6YbtRn0LzD-Fn8LKnE-11" value="&lt;font style=&quot;font-size: 24px;&quot;&gt;&lt;b&gt;Tipo de Débito&lt;/b&gt;&lt;/font&gt;" style="text;html=1;align=left;verticalAlign=middle;resizable=0;points=[];autosize=1;strokeColor=none;fillColor=none;" vertex="1" parent="1">
          <mxGeometry x="170" y="70" width="190" height="40" as="geometry" />
        </mxCell>
        <mxCell id="LU6YbtRn0LzD-Fn8LKnE-12" value="&lt;b&gt;&lt;font style=&quot;font-size: 14px;&quot;&gt;BaseEducacional.dbo.FNDebitos&lt;/font&gt;&lt;/b&gt;" style="text;html=1;align=center;verticalAlign=middle;resizable=0;points=[];autosize=1;strokeColor=none;fillColor=none;strokeWidth=13;" vertex="1" parent="1">
          <mxGeometry x="145" y="400" width="240" height="30" as="geometry" />
        </mxCell>
        <mxCell id="LU6YbtRn0LzD-Fn8LKnE-13" value="&lt;font style=&quot;font-size: 14px;&quot;&gt;&lt;b&gt;INSERT&lt;/b&gt;&lt;/font&gt;" style="text;html=1;align=center;verticalAlign=middle;resizable=0;points=[];autosize=1;strokeColor=none;fillColor=none;" vertex="1" parent="1">
          <mxGeometry x="318" y="456.38" width="70" height="30" as="geometry" />
        </mxCell>
        <mxCell id="LU6YbtRn0LzD-Fn8LKnE-14" value="" style="endArrow=classic;html=1;rounded=0;entryX=0.959;entryY=1.043;entryDx=0;entryDy=0;entryPerimeter=0;" edge="1" parent="1">
          <mxGeometry width="50" height="50" relative="1" as="geometry">
            <mxPoint x="310.5" y="488.41999999999996" as="sourcePoint" />
            <mxPoint x="409.5799999999999" y="487.66999999999996" as="targetPoint" />
          </mxGeometry>
        </mxCell>
        <mxCell id="LU6YbtRn0LzD-Fn8LKnE-15" value="" style="group" vertex="1" connectable="0" parent="1">
          <mxGeometry x="227.5" y="430" width="75" height="104.12000000000006" as="geometry" />
        </mxCell>
        <mxCell id="LU6YbtRn0LzD-Fn8LKnE-16" value="" style="shape=cylinder3;whiteSpace=wrap;html=1;boundedLbl=1;backgroundOutline=1;size=15;" vertex="1" parent="LU6YbtRn0LzD-Fn8LKnE-15">
          <mxGeometry y="42.125" width="75" height="48.125" as="geometry" />
        </mxCell>
        <mxCell id="LU6YbtRn0LzD-Fn8LKnE-17" value="" style="shape=cylinder3;whiteSpace=wrap;html=1;boundedLbl=1;backgroundOutline=1;size=15;" vertex="1" parent="LU6YbtRn0LzD-Fn8LKnE-15">
          <mxGeometry y="24.0625" width="75" height="48.125" as="geometry" />
        </mxCell>
        <mxCell id="LU6YbtRn0LzD-Fn8LKnE-18" value="" style="shape=cylinder3;whiteSpace=wrap;html=1;boundedLbl=1;backgroundOutline=1;size=15;" vertex="1" parent="LU6YbtRn0LzD-Fn8LKnE-15">
          <mxGeometry y="6" width="75" height="48.125" as="geometry" />
        </mxCell>
        <mxCell id="LU6YbtRn0LzD-Fn8LKnE-19" value="" style="ellipse;whiteSpace=wrap;html=1;" vertex="1" parent="LU6YbtRn0LzD-Fn8LKnE-15">
          <mxGeometry x="60.875" y="56.741365740740775" width="5.625" height="4.90162037037037" as="geometry" />
        </mxCell>
        <mxCell id="LU6YbtRn0LzD-Fn8LKnE-20" value="" style="ellipse;whiteSpace=wrap;html=1;" vertex="1" parent="LU6YbtRn0LzD-Fn8LKnE-15">
          <mxGeometry x="60.875" y="37.48094907407408" width="5.625" height="4.90162037037037" as="geometry" />
        </mxCell>
        <mxCell id="LU6YbtRn0LzD-Fn8LKnE-21" value="" style="ellipse;whiteSpace=wrap;html=1;" vertex="1" parent="1">
          <mxGeometry x="288.20833333333337" y="504.8038657407408" width="5.625" height="4.90162037037037" as="geometry" />
        </mxCell>
        <mxCell id="LU6YbtRn0LzD-Fn8LKnE-33" style="edgeStyle=orthogonalEdgeStyle;rounded=0;orthogonalLoop=1;jettySize=auto;html=1;fontFamily=Helvetica;fontSize=16;fontColor=default;startSize=30;" edge="1" parent="1" source="LU6YbtRn0LzD-Fn8LKnE-34">
          <mxGeometry relative="1" as="geometry">
            <mxPoint x="220" y="483.7850000000001" as="targetPoint" />
          </mxGeometry>
        </mxCell>
        <mxCell id="LU6YbtRn0LzD-Fn8LKnE-34" value="" style="ellipse;whiteSpace=wrap;html=1;aspect=fixed;strokeColor=#82b366;align=center;verticalAlign=middle;fontFamily=Helvetica;fontSize=16;startSize=30;fillColor=#d5e8d4;" vertex="1" parent="1">
          <mxGeometry x="130" y="462.77" width="42.03" height="42.03" as="geometry" />
        </mxCell>
        <mxCell id="LU6YbtRn0LzD-Fn8LKnE-63" value="" style="group" vertex="1" connectable="0" parent="1">
          <mxGeometry x="413" y="423" width="220" height="127.94" as="geometry" />
        </mxCell>
        <mxCell id="LU6YbtRn0LzD-Fn8LKnE-64" value="" style="rhombus;whiteSpace=wrap;html=1;strokeColor=default;align=center;verticalAlign=middle;fontFamily=Helvetica;fontSize=16;fontColor=default;startSize=30;fillColor=default;" vertex="1" parent="LU6YbtRn0LzD-Fn8LKnE-63">
          <mxGeometry width="220" height="127.94" as="geometry" />
        </mxCell>
        <mxCell id="LU6YbtRn0LzD-Fn8LKnE-65" value="&lt;span style=&quot;font-size: 13px;&quot;&gt;Existe pedido de venda&lt;br&gt;&amp;nbsp;com o mesmo &lt;br&gt;Agrupador?&lt;/span&gt;" style="text;html=1;align=center;verticalAlign=middle;resizable=0;points=[];autosize=1;strokeColor=none;fillColor=none;fontSize=16;fontFamily=Helvetica;fontColor=default;" vertex="1" parent="LU6YbtRn0LzD-Fn8LKnE-63">
          <mxGeometry x="30" y="33.97" width="160" height="70" as="geometry" />
        </mxCell>
        <mxCell id="LU6YbtRn0LzD-Fn8LKnE-67" value="&lt;font style=&quot;font-size: 16px;&quot;&gt;Sim&lt;/font&gt;" style="text;html=1;align=center;verticalAlign=middle;resizable=0;points=[];autosize=1;strokeColor=none;fillColor=none;" vertex="1" parent="1">
          <mxGeometry x="683" y="456.38" width="50" height="30" as="geometry" />
        </mxCell>
        <mxCell id="LU6YbtRn0LzD-Fn8LKnE-70" style="edgeStyle=orthogonalEdgeStyle;rounded=0;orthogonalLoop=1;jettySize=auto;html=1;exitX=1;exitY=0.5;exitDx=0;exitDy=0;" edge="1" parent="1" source="LU6YbtRn0LzD-Fn8LKnE-68" target="LU6YbtRn0LzD-Fn8LKnE-69">
          <mxGeometry relative="1" as="geometry" />
        </mxCell>
        <mxCell id="LU6YbtRn0LzD-Fn8LKnE-68" value="Importa agendamento de débito no pedido de venda" style="whiteSpace=wrap;html=1;strokeColor=default;align=center;verticalAlign=middle;fontFamily=Helvetica;fontSize=16;fontColor=default;startSize=30;fillColor=default;" vertex="1" parent="1">
          <mxGeometry x="803" y="648.97" width="228" height="70" as="geometry" />
        </mxCell>
        <mxCell id="LU6YbtRn0LzD-Fn8LKnE-69" value="" style="ellipse;whiteSpace=wrap;html=1;aspect=fixed;strokeColor=#ae4132;align=center;verticalAlign=middle;fontFamily=Helvetica;fontSize=16;startSize=30;fillColor=#fad9d5;" vertex="1" parent="1">
          <mxGeometry x="1083" y="662.95" width="42.03" height="42.03" as="geometry" />
        </mxCell>
        <mxCell id="LU6YbtRn0LzD-Fn8LKnE-72" value="&lt;span style=&quot;font-size: 16px;&quot;&gt;Não&lt;/span&gt;" style="text;html=1;align=center;verticalAlign=middle;resizable=0;points=[];autosize=1;strokeColor=none;fillColor=none;" vertex="1" parent="1">
          <mxGeometry x="528" y="570" width="50" height="30" as="geometry" />
        </mxCell>
        <mxCell id="LU6YbtRn0LzD-Fn8LKnE-73" value="" style="group" vertex="1" connectable="0" parent="1">
          <mxGeometry x="413" y="620" width="220" height="127.94" as="geometry" />
        </mxCell>
        <mxCell id="LU6YbtRn0LzD-Fn8LKnE-75" style="edgeStyle=orthogonalEdgeStyle;rounded=0;orthogonalLoop=1;jettySize=auto;html=1;exitX=0.5;exitY=1;exitDx=0;exitDy=0;" edge="1" parent="LU6YbtRn0LzD-Fn8LKnE-73" source="LU6YbtRn0LzD-Fn8LKnE-76">
          <mxGeometry relative="1" as="geometry">
            <mxPoint x="110" y="190" as="targetPoint" />
          </mxGeometry>
        </mxCell>
        <mxCell id="LU6YbtRn0LzD-Fn8LKnE-76" value="" style="rhombus;whiteSpace=wrap;html=1;strokeColor=default;align=center;verticalAlign=middle;fontFamily=Helvetica;fontSize=16;fontColor=default;startSize=30;fillColor=default;" vertex="1" parent="LU6YbtRn0LzD-Fn8LKnE-73">
          <mxGeometry width="220" height="127.94" as="geometry" />
        </mxCell>
        <mxCell id="LU6YbtRn0LzD-Fn8LKnE-77" value="&lt;span style=&quot;font-size: 13px;&quot;&gt;Existe pedido de venda&lt;br&gt;de renovação?&lt;/span&gt;" style="text;html=1;align=center;verticalAlign=middle;resizable=0;points=[];autosize=1;strokeColor=none;fillColor=none;fontSize=16;fontFamily=Helvetica;fontColor=default;" vertex="1" parent="LU6YbtRn0LzD-Fn8LKnE-73">
          <mxGeometry x="30" y="43.97" width="160" height="50" as="geometry" />
        </mxCell>
        <mxCell id="LU6YbtRn0LzD-Fn8LKnE-66" style="edgeStyle=orthogonalEdgeStyle;rounded=0;orthogonalLoop=1;jettySize=auto;html=1;exitX=1;exitY=0.5;exitDx=0;exitDy=0;" edge="1" parent="1" source="LU6YbtRn0LzD-Fn8LKnE-64" target="LU6YbtRn0LzD-Fn8LKnE-68">
          <mxGeometry relative="1" as="geometry">
            <mxPoint x="713" y="487" as="targetPoint" />
          </mxGeometry>
        </mxCell>
        <mxCell id="LU6YbtRn0LzD-Fn8LKnE-74" style="edgeStyle=orthogonalEdgeStyle;rounded=0;orthogonalLoop=1;jettySize=auto;html=1;exitX=1;exitY=0.5;exitDx=0;exitDy=0;entryX=0;entryY=0.5;entryDx=0;entryDy=0;" edge="1" parent="1" source="LU6YbtRn0LzD-Fn8LKnE-76" target="LU6YbtRn0LzD-Fn8LKnE-68">
          <mxGeometry relative="1" as="geometry">
            <mxPoint x="713" y="694" as="targetPoint" />
          </mxGeometry>
        </mxCell>
        <mxCell id="LU6YbtRn0LzD-Fn8LKnE-71" style="edgeStyle=orthogonalEdgeStyle;rounded=0;orthogonalLoop=1;jettySize=auto;html=1;exitX=0.5;exitY=1;exitDx=0;exitDy=0;entryX=0.5;entryY=0;entryDx=0;entryDy=0;" edge="1" parent="1" source="LU6YbtRn0LzD-Fn8LKnE-64" target="LU6YbtRn0LzD-Fn8LKnE-76">
          <mxGeometry relative="1" as="geometry">
            <mxPoint x="522.9473684210529" y="600" as="targetPoint" />
          </mxGeometry>
        </mxCell>
        <mxCell id="LU6YbtRn0LzD-Fn8LKnE-78" value="&lt;span style=&quot;font-size: 16px;&quot;&gt;Não&lt;/span&gt;" style="text;html=1;align=center;verticalAlign=middle;resizable=0;points=[];autosize=1;strokeColor=none;fillColor=none;" vertex="1" parent="1">
          <mxGeometry x="533" y="760" width="50" height="30" as="geometry" />
        </mxCell>
        <mxCell id="LU6YbtRn0LzD-Fn8LKnE-80" value="" style="group" vertex="1" connectable="0" parent="1">
          <mxGeometry x="413" y="810" width="220" height="127.94" as="geometry" />
        </mxCell>
        <mxCell id="LU6YbtRn0LzD-Fn8LKnE-81" style="edgeStyle=orthogonalEdgeStyle;rounded=0;orthogonalLoop=1;jettySize=auto;html=1;exitX=0.5;exitY=1;exitDx=0;exitDy=0;" edge="1" parent="LU6YbtRn0LzD-Fn8LKnE-80" source="LU6YbtRn0LzD-Fn8LKnE-82">
          <mxGeometry relative="1" as="geometry">
            <mxPoint x="110" y="190" as="targetPoint" />
          </mxGeometry>
        </mxCell>
        <mxCell id="LU6YbtRn0LzD-Fn8LKnE-82" value="" style="rhombus;whiteSpace=wrap;html=1;strokeColor=default;align=center;verticalAlign=middle;fontFamily=Helvetica;fontSize=16;fontColor=default;startSize=30;fillColor=default;" vertex="1" parent="LU6YbtRn0LzD-Fn8LKnE-80">
          <mxGeometry width="220" height="127.94" as="geometry" />
        </mxCell>
        <mxCell id="LU6YbtRn0LzD-Fn8LKnE-83" value="&lt;span style=&quot;font-size: 13px;&quot;&gt;Existe pedido de venda&lt;br&gt;de matrícula?&lt;/span&gt;" style="text;html=1;align=center;verticalAlign=middle;resizable=0;points=[];autosize=1;strokeColor=none;fillColor=none;fontSize=16;fontFamily=Helvetica;fontColor=default;" vertex="1" parent="LU6YbtRn0LzD-Fn8LKnE-80">
          <mxGeometry x="30" y="43.97" width="160" height="50" as="geometry" />
        </mxCell>
        <mxCell id="LU6YbtRn0LzD-Fn8LKnE-85" value="&lt;font style=&quot;font-size: 16px;&quot;&gt;Sim&lt;/font&gt;" style="text;html=1;align=center;verticalAlign=middle;resizable=0;points=[];autosize=1;strokeColor=none;fillColor=none;" vertex="1" parent="1">
          <mxGeometry x="683" y="648.97" width="50" height="30" as="geometry" />
        </mxCell>
        <mxCell id="LU6YbtRn0LzD-Fn8LKnE-86" style="edgeStyle=orthogonalEdgeStyle;rounded=0;orthogonalLoop=1;jettySize=auto;html=1;exitX=1;exitY=0.5;exitDx=0;exitDy=0;entryX=0.5;entryY=1;entryDx=0;entryDy=0;" edge="1" parent="1" source="LU6YbtRn0LzD-Fn8LKnE-82" target="LU6YbtRn0LzD-Fn8LKnE-68">
          <mxGeometry relative="1" as="geometry" />
        </mxCell>
        <mxCell id="LU6YbtRn0LzD-Fn8LKnE-87" value="&lt;font style=&quot;font-size: 16px;&quot;&gt;Sim&lt;/font&gt;" style="text;html=1;align=center;verticalAlign=middle;resizable=0;points=[];autosize=1;strokeColor=none;fillColor=none;" vertex="1" parent="1">
          <mxGeometry x="683" y="840" width="50" height="30" as="geometry" />
        </mxCell>
        <mxCell id="LU6YbtRn0LzD-Fn8LKnE-88" value="&lt;span style=&quot;font-size: 16px;&quot;&gt;Não&lt;/span&gt;" style="text;html=1;align=center;verticalAlign=middle;resizable=0;points=[];autosize=1;strokeColor=none;fillColor=none;" vertex="1" parent="1">
          <mxGeometry x="533" y="950" width="50" height="30" as="geometry" />
        </mxCell>
        <mxCell id="LU6YbtRn0LzD-Fn8LKnE-89" value="Erro!" style="whiteSpace=wrap;html=1;strokeColor=default;align=center;verticalAlign=middle;fontFamily=Helvetica;fontSize=16;fontColor=default;startSize=30;fillColor=default;" vertex="1" parent="1">
          <mxGeometry x="468" y="1000" width="110" height="50" as="geometry" />
        </mxCell>
        <mxCell id="LU6YbtRn0LzD-Fn8LKnE-90" style="edgeStyle=orthogonalEdgeStyle;rounded=0;orthogonalLoop=1;jettySize=auto;html=1;exitX=1;exitY=0.5;exitDx=0;exitDy=0;" edge="1" parent="1" target="LU6YbtRn0LzD-Fn8LKnE-91">
          <mxGeometry relative="1" as="geometry">
            <mxPoint x="578" y="1025.04" as="sourcePoint" />
          </mxGeometry>
        </mxCell>
        <mxCell id="LU6YbtRn0LzD-Fn8LKnE-91" value="" style="ellipse;whiteSpace=wrap;html=1;aspect=fixed;strokeColor=#ae4132;align=center;verticalAlign=middle;fontFamily=Helvetica;fontSize=16;startSize=30;fillColor=#fad9d5;" vertex="1" parent="1">
          <mxGeometry x="630" y="1003.99" width="42.03" height="42.03" as="geometry" />
        </mxCell>
        <mxCell id="LU6YbtRn0LzD-Fn8LKnE-93" value="Débito" style="text;html=1;align=center;verticalAlign=middle;resizable=0;points=[];autosize=1;strokeColor=none;fillColor=none;" vertex="1" parent="1">
          <mxGeometry x="323" y="486.38" width="60" height="30" as="geometry" />
        </mxCell>
      </root>
    </mxGraphModel>
  </diagram>
</mxfile>
